<svg xmlns="http://www.w3.org/2000/svg" viewBox="0 0 1024 1024" width="1024" height="1024">
  <defs>
    <!-- Blue circle gradient (darker top, lighter bottom) -->
    <linearGradient id="blueGrad" x1="0" y1="0" x2="0" y2="1">
      <stop offset="0%" stop-color="#1B8AEE"/>
      <stop offset="100%" stop-color="#3CB5FF"/>
    </linearGradient>

    <!-- Icon drop shadow -->
    <filter id="iconShadow" x="-10%" y="-6%" width="120%" height="125%">
      <feDropShadow dx="0" dy="12" stdDeviation="28" flood-color="rgba(0,0,0,0.15)"/>
    </filter>

    <!-- Blue circle shadow -->
    <filter id="circleShadow" x="-40%" y="-30%" width="180%" height="200%">
      <feDropShadow dx="0" dy="8" stdDeviation="14" flood-color="rgba(27,110,220,0.4)"/>
    </filter>
  </defs>

  <!-- Background rounded rect with shadow -->
  <rect x="20" y="20" width="984" height="984" rx="228" ry="228" fill="#FBFBFD" filter="url(#iconShadow)"/>

  <!-- Row 1 — positioned more centered vertically -->
  <rect x="200" y="285" width="92" height="92" rx="10" ry="10" fill="#F0F2F5" stroke="#B8C0CC" stroke-width="6"/>
  <rect x="346" y="317" width="490" height="28" rx="14" ry="14" fill="#B8C0CC"/>

  <!-- Row 2 -->
  <rect x="200" y="435" width="92" height="92" rx="10" ry="10" fill="#F0F2F5" stroke="#B8C0CC" stroke-width="6"/>
  <rect x="346" y="467" width="370" height="28" rx="14" ry="14" fill="#B8C0CC"/>

  <!-- Row 3 -->
  <rect x="200" y="585" width="92" height="92" rx="10" ry="10" fill="#F0F2F5" stroke="#B8C0CC" stroke-width="6"/>
  <rect x="346" y="617" width="200" height="28" rx="14" ry="14" fill="#B8C0CC"/>

  <!-- Blue check circle (shifted slightly more bottom-right) -->
  <circle cx="745" cy="680" r="120" fill="url(#blueGrad)" filter="url(#circleShadow)"/>

  <!-- White checkmark -->
  <polyline points="690,680 728,724 802,636" fill="none" stroke="#FFFFFF" stroke-width="20" stroke-linecap="round" stroke-linejoin="round"/>
</svg>
